<svg width="513" height="502" viewBox="0 0 513 502" fill="none" xmlns="http://www.w3.org/2000/svg">
<path d="M183.571 229.988C189.393 177.813 230.595 135.94 281.873 135.94C339.421 135.94 379.056 176.246 382.638 229.988H183.571ZM372.114 340.158C357.559 370.163 327.329 389.645 281.649 390.764C218.279 392.332 184.914 338.366 183.347 292.014H509.827C510.946 282.609 511.618 273.205 511.618 263.352C511.618 137.059 409.285 34.7266 282.993 34.7266C156.7 34.7266 54.3672 137.059 54.3672 263.352C54.3672 389.645 156.7 491.978 282.993 491.978C382.415 491.978 466.834 428.607 498.407 340.158H372.114Z" fill="url(#paint0_radial_1309_12)" stroke="#2064A9" stroke-width="2.23923" stroke-miterlimit="10"/>
<path d="M485.866 108.845C484.075 115.787 482.283 121.833 481.164 126.983C480.268 131.013 479.82 142.881 479.82 142.881C479.82 142.881 488.329 137.507 490.345 134.82C492.136 132.357 494.599 121.833 496.838 111.308L485.866 108.845Z" fill="url(#paint1_linear_1309_12)" fill-opacity="0.95"/>
<path d="M497.287 111.756C498.854 104.814 500.198 97.6489 500.87 92.7226C503.781 74.5848 509.827 -22.15 380.623 5.39259C207.307 42.116 111.467 178.037 96.2407 196.847C67.3546 232.675 -18.6319 371.059 3.98433 456.15C17.1958 505.861 70.0416 505.637 108.556 497.8L105.869 484.14C40.4838 494.665 30.6312 444.954 39.5881 406.215C50.5603 357.848 86.1641 278.355 201.261 166.393C303.37 66.9715 411.748 11.4385 468.177 38.9811C498.183 53.5361 492.361 85.1092 485.867 109.293L497.287 111.756Z" fill="#FFB700" fill-opacity="0.95"/>
<path d="M380.623 5.39261C207.306 42.116 111.467 178.037 96.2405 196.847C78.1027 219.239 37.7966 281.938 15.6282 346.428C14.2846 351.578 12.7172 356.728 10.9258 361.206C82.1333 178.709 259.033 49.5055 387.564 4.04907C385.325 4.49692 382.862 4.94477 380.623 5.39261Z" fill="#FFFFA6"/>
<path d="M108.556 497.576C129.605 493.097 146.847 486.379 150.654 484.364C154.237 482.349 166.552 475.631 177.748 468.914L167.896 463.315C162.522 465.331 156.252 467.794 149.31 470.705C132.964 477.423 118.185 481.677 105.869 483.469L108.556 497.576Z" fill="url(#paint2_linear_1309_12)" fill-opacity="0.95"/>
<defs>
<radialGradient id="paint0_radial_1309_12" cx="0" cy="0" r="1" gradientUnits="userSpaceOnUse" gradientTransform="translate(279.87 225.41) rotate(51.4109) scale(233.822 235.104)">
<stop stop-color="#89EAFE"/>
<stop offset="0.262" stop-color="#86E8FD"/>
<stop offset="0.436" stop-color="#7DDFF9"/>
<stop offset="0.583" stop-color="#6ED2F2"/>
<stop offset="0.716" stop-color="#59BEE9"/>
<stop offset="0.84" stop-color="#3EA5DD"/>
<stop offset="0.954" stop-color="#1C87CF"/>
<stop offset="1" stop-color="#0D79C8"/>
</radialGradient>
<linearGradient id="paint1_linear_1309_12" x1="491.2" y1="110.144" x2="483.773" y2="144.659" gradientUnits="userSpaceOnUse">
<stop stop-color="#FFB700"/>
<stop offset="0.86" stop-color="#FFB700" stop-opacity="0"/>
</linearGradient>
<linearGradient id="paint2_linear_1309_12" x1="107.282" y1="492.71" x2="155.43" y2="473.39" gradientUnits="userSpaceOnUse">
<stop stop-color="#FFB700"/>
<stop offset="1" stop-color="#FFB700" stop-opacity="0"/>
</linearGradient>
</defs>
</svg>
